<svg width="164" height="28" viewBox="0 0 164 28" fill="none" xmlns="http://www.w3.org/2000/svg">
<path d="M54.4704 9.76171L51.9123 11.3497C51.0713 10.0424 49.7151 9.26434 48.0541 9.26434C45.3488 9.26434 43.3444 11.2751 43.3444 14.2132C43.3549 17.2471 45.4224 19.162 48.0541 19.162C49.7046 19.162 51.0467 18.4053 51.9438 17.0872L54.3723 18.86C53.0512 20.8282 50.8015 22.0574 48.0751 22.0574C43.481 22.0574 40.2431 18.7641 40.2431 14.2132C40.2431 9.66223 43.481 6.36894 48.0751 6.36894C50.8225 6.36894 53.2544 7.64434 54.4669 9.76171" fill="#595959"/>
<path d="M65.7682 16.5224C65.7682 16.8457 65.7472 17.2364 65.7156 17.4745H58.3952C58.6931 18.9879 59.7374 19.6451 61.0479 19.6451C61.945 19.6451 62.9122 19.2792 63.6586 18.6397L65.2881 20.4551C64.1177 21.5458 62.6249 22.0432 60.8868 22.0432C57.7224 22.0432 55.5287 19.8618 55.5287 16.565C55.5287 13.2682 57.6593 11.0229 60.7501 11.0229C63.8409 11.0229 65.7577 13.2575 65.7682 16.5224ZM58.4057 15.5525H62.9788C62.723 14.2132 61.924 13.4564 60.7291 13.4564C59.4185 13.4564 58.651 14.2558 58.4057 15.5525Z" fill="#595959"/>
<path d="M75.1737 12.3978V6.21973H77.942V21.7767H75.2262V20.6221C74.5534 21.4641 73.5512 22.0467 72.1355 22.0467C69.29 22.0467 67.1384 19.6807 67.1384 16.5366C67.1384 13.3925 69.29 11.0264 72.1355 11.0264C73.5197 11.0264 74.5008 11.5771 75.1737 12.3978ZM69.9838 16.533C69.9838 18.1317 71.0176 19.4178 72.6471 19.4178C74.2766 19.4178 75.3103 18.185 75.3103 16.533C75.3103 14.881 74.2345 13.6483 72.6471 13.6483C71.0596 13.6483 69.9838 14.9343 69.9838 16.533Z" fill="#595959"/>
<path d="M90.4944 21.7732H87.7785V20.6186C87.1057 21.4605 86.1035 22.0432 84.6878 22.0432C81.8423 22.0432 79.6907 19.6771 79.6907 16.533C79.6907 13.3889 81.8423 11.0229 84.6878 11.0229C86.1035 11.0229 87.0952 11.6055 87.7785 12.4617V11.3071H90.4944V21.7767V21.7732ZM82.5326 16.533C82.5326 18.1317 83.5664 19.4178 85.1959 19.4178C86.8254 19.4178 87.8591 18.185 87.8591 16.533C87.8591 14.8811 86.7833 13.6483 85.1959 13.6483C83.6085 13.6483 82.5326 14.9343 82.5326 16.533Z" fill="#595959"/>
<path d="M99.9279 11.2538L99.5109 14.0533C99.0518 13.8472 98.393 13.7193 97.8288 13.7193C96.5392 13.7193 95.6562 14.5187 95.6562 16.0747V21.7767H92.8738V11.3107H95.5686V12.4546C96.2168 11.4705 97.2085 11.03 98.4771 11.03C99.0728 11.03 99.5424 11.1153 99.9279 11.2574" fill="#595959"/>
<path d="M108.622 14.2238C107.802 13.8153 106.491 13.3818 105.328 13.3712C104.273 13.3712 103.741 13.7478 103.741 14.3233C103.741 14.9272 104.487 15.08 105.423 15.2186L106.337 15.3571C108.576 15.7017 109.82 16.7178 109.82 18.4905C109.82 20.6505 108.072 22.0432 105.079 22.0432C103.674 22.0432 101.831 21.7732 100.489 20.8104L101.585 18.6717C102.468 19.265 103.544 19.6984 105.1 19.6984C106.39 19.6984 107.006 19.3325 107.006 18.7143C107.006 18.2063 106.484 17.9257 105.289 17.7516L104.448 17.6343C102.062 17.3004 100.878 16.2417 100.878 14.4583C100.878 12.3089 102.518 11.0336 105.237 11.0336C106.887 11.0336 108.177 11.3462 109.554 12.0283L108.615 14.2203L108.622 14.2238Z" fill="#595959"/>
<path d="M126.823 10.4651C125.649 9.72973 124.223 9.17907 122.594 9.17907C120.964 9.17907 119.738 9.84697 119.738 10.9945C119.738 12.142 121.027 12.4404 122.818 12.7459L123.659 12.8845C126.322 13.3285 128.411 14.4832 128.411 17.1192C128.411 20.4551 125.513 22.0432 122.306 22.0432C120.046 22.0432 117.617 21.3717 116.019 20.0679L117.565 17.6379C118.641 18.5118 120.4 19.2685 122.317 19.2685C123.967 19.2685 125.246 18.6078 125.246 17.4425C125.246 16.3945 124.16 16.0037 122.082 15.6697L121.132 15.517C118.501 15.0942 116.584 13.9183 116.584 11.1863C116.584 8.03157 119.356 6.39026 122.53 6.39026C124.619 6.39026 126.357 6.86631 128.232 7.9996L126.827 10.4616L126.823 10.4651Z" fill="#595959"/>
<path d="M133.502 7.88237C133.502 8.89842 132.724 9.67645 131.722 9.67645C130.72 9.67645 129.952 8.89842 129.952 7.88237C129.952 6.86631 130.72 6.06697 131.722 6.06697C132.724 6.06697 133.502 6.86631 133.502 7.88237Z" fill="#595959"/>
<path d="M133.131 11.3071H130.348V21.7767H133.131V11.3071Z" fill="#595959"/>
<path d="M145.277 15.1084V21.7732H142.494V16.0143C142.494 14.5009 141.748 13.6696 140.479 13.6696C139.284 13.6696 138.296 14.4583 138.296 16.0357V21.7732H135.517V11.3036H138.223V12.5328C138.958 11.4208 140.087 11.0193 141.261 11.0193C143.605 11.0193 145.277 12.6713 145.277 15.1013" fill="#595959"/>
<path d="M157.741 21.7767H155.026V20.6221C154.353 21.4641 153.35 22.0467 151.935 22.0467C149.089 22.0467 146.938 19.6807 146.938 16.5366C146.938 13.3925 149.089 11.0264 151.935 11.0264C153.35 11.0264 154.342 11.6091 155.026 12.4653V11.3107H157.741V21.7803V21.7767ZM149.78 16.5366C149.78 18.1353 150.813 19.4213 152.443 19.4213C154.072 19.4213 155.106 18.1885 155.106 16.5366C155.106 14.8846 154.03 13.6518 152.443 13.6518C150.855 13.6518 149.78 14.9379 149.78 16.5366Z" fill="#595959"/>
<path d="M163.278 7.88237C163.278 8.89842 162.5 9.67645 161.498 9.67645C160.496 9.67645 159.728 8.89842 159.728 7.88237C159.728 6.86631 160.496 6.06697 161.498 6.06697C162.5 6.06697 163.278 6.86631 163.278 7.88237Z" fill="#595959"/>
<path d="M162.907 11.3071H160.124V21.7732H162.907V11.3071Z" fill="#595959"/>
<path d="M10.4182 16.4726C9.00599 16.4726 7.59727 15.9291 6.52146 14.8384C4.37334 12.6607 4.37334 9.11513 6.52146 6.93737C8.66958 4.7596 12.1668 4.7596 14.315 6.93737L15.4714 8.10974L13.8594 9.74395L12.703 8.57158C11.4415 7.29263 9.39146 7.29263 8.12992 8.57158C6.86838 9.85053 6.86838 11.9288 8.12992 13.2078C8.73966 13.8259 9.55265 14.167 10.4147 14.167C11.2768 14.167 12.0897 13.8259 12.6995 13.2078L14.3115 14.842C13.2356 15.9326 11.8234 16.4762 10.4147 16.4762M10.4182 20.7038C7.83206 20.7038 5.40009 19.6842 3.57086 17.8297C1.74163 15.9753 0.735901 13.5097 0.735901 10.8879C0.735901 8.26605 1.74163 5.80053 3.57086 3.94605C5.40009 2.09158 7.83206 1.06842 10.4182 1.06842C13.0044 1.06842 15.4363 2.08803 17.2656 3.94605L18.422 5.11842L16.81 6.75263L15.6536 5.58026C14.2554 4.16276 12.3946 3.38118 10.4147 3.38118C8.43479 3.38118 6.57752 4.16276 5.17581 5.58026C3.77761 6.99776 3.00667 8.88421 3.00667 10.8914C3.00667 12.8987 3.77761 14.7816 5.17581 16.2026C6.57402 17.6201 8.43479 18.4017 10.4147 18.4017C12.3946 18.4017 14.2519 17.6201 15.6536 16.2026L17.7667 14.0604L19.3786 15.6946L17.2656 17.8368C15.4363 19.6913 13.0044 20.7109 10.4182 20.7109M22.8163 22.4126C21.4041 22.4126 19.9954 21.8691 18.9196 20.7784L17.7632 19.6061L19.3751 17.9718L20.5315 19.1442C21.7931 20.4232 23.8431 20.4232 25.1046 19.1442C26.3662 17.8653 26.3662 15.787 25.1046 14.508C23.8431 13.2291 21.7931 13.2291 20.5315 14.508L18.9196 12.8738C19.9603 11.8187 21.3445 11.2361 22.8163 11.2361C24.2881 11.2361 25.6723 11.8151 26.7131 12.8738C28.8612 15.0516 28.8612 18.5971 26.7131 20.7749C25.6373 21.8655 24.2286 22.4091 22.8163 22.4091M22.8163 26.6438C20.2302 26.6438 17.7982 25.6207 15.969 23.7662L14.8126 22.5938L16.4245 20.9596L17.5809 22.132C18.9791 23.5495 20.8399 24.3311 22.8198 24.3311C24.7997 24.3311 26.657 23.5495 28.0587 22.132C29.4569 20.7145 30.2279 18.828 30.2279 16.8208C30.2279 14.8136 29.4569 12.9307 28.0587 11.5096C25.1712 8.58224 20.472 8.58224 17.5844 11.5096L15.4714 13.6518L13.8594 12.0176L15.9725 9.87539C19.7501 6.04566 25.8931 6.04566 29.6707 9.87539C31.4999 11.7299 32.5056 14.1954 32.5056 16.8172C32.5056 19.4391 31.4999 21.9046 29.6707 23.7591C27.8415 25.6136 25.4095 26.6367 22.8233 26.6367" fill="#DC1E34"/>
</svg>
