<?xml version="1.0" encoding="UTF-8"?><svg id="Layer_1" xmlns="http://www.w3.org/2000/svg" viewBox="0 0 292 168"><defs><style>.cls-1{stroke-width:0px;}</style></defs><path class="cls-1" d="M7.66,13.65c-.54.07-1.15.07-1.76.07-1.36,0-2.71-.14-4-.34C.61,13.11,0,12.56,0,11.75,0,9.85.54,8.28,1.56,6.99c1.06-1.33,2.38-2.44,3.87-3.26,1.56-.88,3.39-1.56,5.49-2.1s4.14-.95,6.24-1.15c2-.27,4.02-.4,6.04-.41,1.96-.07,3.66-.07,5.02-.07,5.56,0,11.6.75,18.18,2.24,6.38,1.45,12.68,3.26,18.86,5.43,3.54,1.36,7,2.9,10.38,4.62,4.13,2.01,8.13,4.25,12,6.72,4.17,2.64,8.18,5.52,12.01,8.63,3.8,3.08,7.31,6.49,10.51,10.19,3,3.47,5.51,7.33,7.46,11.48,1.9,4.01,2.78,8.08,2.78,12.22,0,5.57-1.36,10.39-4.07,14.53-2.71,4.14-6.31,7.54-10.72,10.25-4.41,2.72-9.36,4.75-14.85,6.11-5.41,1.35-10.97,2.03-16.55,2.04-2.85,0-5.83-.2-8.95-.61-3.12-.41-6.1-.81-8.88-1.22-.14.68-.34,1.36-.54,2.04-.2.68-.54,1.76-.95,3.12-.75.14-1.42.27-2.1.34-.68.07-1.36.14-2.17.14l-2.78-.27c-.88-1.15-1.56-2.58-1.97-4.21-.41-1.7-.81-3.46-1.22-5.3-5.63-3.26-10.24-6.25-13.84-8.96-3.59-2.72-6.17-4.96-7.8-6.86-1.45-1.58-2.79-3.26-4-5.02-1.36-1.83-2.03-3.73-2.03-5.57s1.36-3.73,4-5.64c2.85-2.11,6.24-3.8,10.18-5.16,3.93-1.29,8.88-2.51,14.92-3.53l.27-5.02c0-.34.07-1.29.27-2.79.2-1.56.47-3.26.81-5.16s.75-3.67,1.22-5.3c.48-1.7,1.09-2.85,1.83-3.46,1.04.79,1.95,1.73,2.71,2.78.68.95,1.15,1.97,1.56,2.99.34,1.02.61,2.17.81,3.4.13,1.22.27,2.51.34,3.94.07,1.22.13,2.44.27,3.73.07,1.29.2,2.58.34,4.01h1.69c1.36,0,3.19.07,5.49.27,2.43.15,4.85.42,7.26.82,2.58.34,5.15.88,7.73,1.56,2.58.68,4.95,1.56,7.12,2.65,2.1,1.09,3.8,2.38,5.16,3.94,1.29,1.56,1.97,3.33,1.97,5.36,0,.75-.27,1.56-.75,2.58-.52,1.01-1.18,1.95-1.97,2.78-.81.88-1.7,1.56-2.71,2.17-.95.61-1.97.95-3.05.95-.75,0-1.63-.14-2.78-.41-.94-.22-1.84-.61-2.65-1.15.88-1.09,1.9-2.04,2.98-2.92,1.09-.88,1.83-1.77,2.24-2.58-.68-.75-1.9-1.49-3.66-2.17-1.76-.75-3.87-1.43-6.31-2.04-2.53-.65-5.08-1.17-7.66-1.56-2.56-.4-5.14-.6-7.73-.61-.81,0-1.42.07-1.83.14-.41.07-.88.2-1.36.34l.14,26.41c1.97,1.22,4,1.97,6.17,2.24,2.17.27,4,.41,5.56.41,2.17,0,4.75-.07,7.73-.27,2.92-.14,5.9-.54,8.95-1.15,3.05-.6,6.04-1.44,8.95-2.51,2.92-1.09,5.56-2.51,7.87-4.28,2.3-1.77,4.21-3.99,5.63-6.52,1.42-2.58,2.17-5.7,2.17-9.37s-.75-7.06-2.17-10.32c-1.47-3.4-3.41-6.58-5.77-9.44-2.37-2.99-5.22-5.77-8.41-8.35-3.22-2.63-6.62-5.03-10.17-7.2-3.51-2.18-7.14-4.17-10.85-5.97-3.73-1.77-7.26-3.33-10.72-4.62-6.96-2.68-14.13-4.77-21.43-6.24-6.85-1.63-14.38-2.31-22.45-2.31-1.63,0-3.32.07-5.02.27-1.7.14-3.39.47-5.02.88-1.9.41-2.78.88-2.78,1.49,0,.27.2.48.68.61.47.13.95.34,1.49.41.54.14,1.02.2,1.56.27.48.07.81.14.95.27.41.27.61.54.61.95,0,.34-.14.68-.47.95-.34,0-.75,0-1.22.07h0ZM44.22,56.63c-2.58.34-5.36.61-8.21.95-2.85.27-5.49.68-7.8,1.15-2.37.48-4.34,1.09-5.83,1.77-1.56.68-2.31,1.56-2.31,2.65,0,.82.34,1.7.95,2.58.61.88,1.36,1.77,2.31,2.65.95.88,1.9,1.7,2.92,2.51,1.02.81,1.97,1.56,2.85,2.17,2.15,1.77,4.52,3.25,7.05,4.41,2.71,1.29,5.49,2.31,8.34,2.92l1.08-23.77s-1.36,0-1.36,0ZM149.83,13.31c.07-.07.14-.07.34-.07.47,0,1.15.14,1.9.34.74.27,1.56.68,2.24,1.22.75.54,1.36,1.29,1.9,2.11.54.82.81,1.77.81,2.92,0,2.38-.88,4.75-2.65,7.13-1.83,2.47-4,4.66-6.44,6.52-2.45,1.87-5.12,3.44-7.94,4.69-2.78,1.22-5.16,1.83-7.19,1.83-1.22,0-2.51-.07-3.93-.27-1.3-.14-2.57-.44-3.8-.88-.68.82-1.22,1.49-1.63,2.11-.53.59-1.25.98-2.04,1.09-.68-.14-1.29-.75-1.9-1.7-.61-.95-1.02-2.17-1.15-3.53,0-.34.07-.68.14-1.02s.14-.75.27-1.02c-.83-1.12-1.58-2.3-2.24-3.53-.63-1.17-.96-2.47-.95-3.8,0-2.04.68-4.14,2.1-6.39,1.36-2.17,3.19-4.21,5.43-6.04,2.3-1.89,4.86-3.45,7.6-4.62,2.71-1.2,5.65-1.83,8.61-1.83,2.71,0,5.02.48,6.92,1.36,1.9.88,3.05,2.04,3.46,3.39h.13ZM122.02,27.64c.27,0,.48-.07.61-.27.41-.54,1.02-1.29,1.76-2.1.75-.82,1.63-1.7,2.51-2.65.88-.95,1.83-1.83,2.78-2.78.95-.88,1.76-1.7,2.51-2.31v-.14c0-.27-.07-.48-.27-.61-3.12.68-5.56,1.97-7.33,4.01-1.76,1.97-2.78,4.21-3.05,6.52.14.27.27.34.47.34ZM132.54,48.96c.54,1.22.95,2.99,1.09,5.36.14,4.96.41,9.98.75,15.14.34,5.09.47,10.12.47,15.01,0,.95-.27,1.97-.75,2.85-.47.95-1.49,1.43-3.05,1.43-.47,0-1.09-.07-1.7-.27-.68-.14-1.22-.34-1.7-.48-.41-.07-.75-.41-1.02-1.02-.29-.64-.54-1.3-.75-1.97-.2-.68-.34-1.36-.47-2.04-.14-.68-.2-1.15-.2-1.49v-3.67c0-.95,0-1.9.07-2.72.07-.81.07-1.7.14-2.65.07-.95.07-2.24.2-3.87.07-.88.27-3.06.47-6.45.27-3.4.75-8.15,1.56-14.4.07-.54.34-.88.75-.88,2.17.2,3.53.88,4.14,2.1h0ZM129.21,32.46c.27.27.48.34.61.34h2.71c1.56,0,3.39-.27,5.49-.82,2.1-.54,4.15-1.29,6.1-2.24,1.86-.89,3.53-2.11,4.95-3.6,1.36-1.43,2.04-3.06,2.04-4.96,0-.88-.14-1.63-.34-2.17-.27-.54-1.15-.88-2.78-.88-1.76,0-3.53.41-5.22,1.16-1.7.75-3.39,1.83-5.02,3.12-1.67,1.34-3.24,2.82-4.68,4.41-1.45,1.59-2.81,3.27-4.07,5.03-.2.14-.07.34.2.61ZM144.95,58.26c0,.14.07.27.27.27,2.37.88,4.41,1.49,6.24,1.83,1.76.34,3.93.54,6.38.75,2.03.14,4.27.34,6.71.54,2.44.2,4.68.68,6.72,1.49,2.03.75,3.73,1.97,5.15,3.53,1.36,1.56,2.1,3.8,2.1,6.65,0,3.33-.81,5.91-2.37,7.74-1.5,1.78-3.38,3.19-5.49,4.14-1.95.9-4.04,1.47-6.17,1.7-2.04.2-3.53.34-4.55.34-2.58,0-5.09-.34-7.46-1.09-2.18-.68-4.28-1.62-6.24-2.78-1.76-1.15-3.19-2.38-4.27-3.8-1.09-1.36-1.56-2.72-1.56-3.94,0-1.49.34-2.71,1.02-3.67.69-.99,1.62-1.79,2.71-2.31,1.14-.56,2.35-.97,3.6-1.22,1.29-.27,2.58-.34,3.8-.34,2.37,0,4.95.34,7.73.95,2.78.61,5.49,1.56,8,2.85.14.14.27.34.27.48,0,.34-.07.54-.27.75-.47.47-1.36,1.02-2.71,1.56-1.35.58-2.8.88-4.27.88-.96-.01-1.92-.15-2.85-.41-1.02-.27-2.1-.61-3.26-.95-1.15-.34-2.31-.75-3.46-1.02-1.17-.33-2.38-.49-3.59-.47-.88,0-1.76.14-2.58.47-.81.34-1.22,1.16-1.22,2.58,0,.75.34,1.36.95,1.77.61.48,1.42.75,2.37.95,1.06.16,2.12.27,3.19.34,1.15.07,2.31.07,3.39.07.54,0,1.9-.14,4-.34,2.19-.27,4.36-.66,6.51-1.15,2.24-.54,4.27-1.22,6.04-2.04,1.76-.81,2.71-1.77,2.71-2.92,0-1.09-.68-1.97-2.1-2.78-1.58-.85-3.27-1.49-5.02-1.9-1.97-.49-3.96-.88-5.97-1.16-2.03-.27-3.73-.41-5.02-.41-2.81-.05-5.61-.21-8.41-.47-2.1-.27-3.73-.61-4.82-1.16-1.08-.54-1.83-1.22-2.17-2.1-.34-.88-.48-1.97-.48-3.26,0-1.9.54-3.53,1.7-4.89,1.2-1.42,2.68-2.57,4.34-3.39,1.82-.92,3.73-1.64,5.7-2.17,2.03-.54,4-.95,5.83-1.22,1.83-.27,3.39-.48,4.61-.54,1.29-.07,1.97-.14,2.17-.14,3.12,0,5.97.2,8.61.68,2.36.42,4.72.89,7.05,1.42.36.06.69.23.95.48.27.27.34.68.34,1.36-.05.7-.39,1.34-.95,1.77-.51.45-1.11.8-1.76,1.02-.48.14-1.15.34-2.04.41-.88.14-1.56.2-2.03.34-1.09.13-2.58.34-4.54.41-1.97.14-4,.27-6.04.41-2.1.14-4.07.34-5.9.48-1.9.14-3.32.34-4.27.47-2.03.34-3.53.61-4.54.88-.95.27-1.76.54-2.44.95-.27,0-.34.14-.34.34ZM202.06,42.98c0-.47.07-1.02.2-1.63.14-.61.47-.95,1.02-.95.81,0,1.97.75,3.46,2.17s2.98,3.39,4.41,5.97c1.43,2.58,2.65,5.64,3.73,9.24,1.08,3.6,1.56,7.54,1.56,11.75,0,1.9-.2,3.8-.61,5.7-.41,1.9-1.02,3.67-1.83,5.23-.81,1.56-1.83,2.92-2.98,3.94-1.15,1.02-2.51,1.56-4,1.56-1.15,0-2.31-.54-3.53-1.7-1.22-1.15-2.37-2.58-3.46-4.21-1.08-1.7-2.17-3.46-3.12-5.43-.95-1.97-1.9-3.8-2.71-5.43-.81-1.7-1.56-3.06-2.17-4.21-.61-1.15-1.02-1.7-1.29-1.7-.34,0-.61.48-.88,1.36-.07.41-.14,1.36-.27,2.92-.07,1.56-.14,3.33-.27,5.23-.07,1.97-.2,3.87-.27,5.7-.13,1.83-.27,3.26-.41,4.21-.07.41-.2.95-.34,1.56-.13.68-.34,1.29-.61,1.9-.24.58-.59,1.11-1.02,1.56-.47.48-1.02.68-1.63.68-.95,0-1.76-.34-2.37-1.09-.61-.75-1.09-1.63-1.49-2.65-.35-1.04-.6-2.11-.75-3.19-.12-.92-.19-1.85-.2-2.78,0-1.09.07-2.51.27-4.35.14-1.83.41-3.8.75-5.98.34-2.17.75-4.35,1.22-6.52.48-2.17,1.09-4.14,1.7-5.91.68-1.76,1.36-3.26,2.1-4.41.75-1.15,1.56-1.7,2.44-1.7s2.04.81,3.39,2.51c1.36,1.7,2.78,3.73,4.34,6.11,1.66,2.52,3.26,5.08,4.82,7.67,1.7,2.72,3.32,5.09,4.95,7.13.68.68.95.95.88.95.41,0,.61-.27.68-.82.07-.54.07-1.36.07-2.38,0-2.78-.14-5.16-.41-7.13-.27-1.94-.66-3.87-1.15-5.77-.48-1.83-1.09-3.8-1.7-5.84-.68-2.04-1.36-4.48-2.1-7.33l-.34-1.49v-.48s-.07,0-.07,0ZM246.28,82.57c-.81.68-1.9,1.43-3.19,2.38-1.29.95-2.78,1.83-4.48,2.78-1.7.88-3.46,1.63-5.29,2.24-1.9.61-3.8.95-5.83.95-3.39,0-5.9-1.09-7.46-3.19-1.56-2.1-2.31-4.48-2.31-7.13,0-1.36.34-2.99,1.02-4.82.68-1.83,1.36-3.67,2.03-5.57-.1-.56-.3-1.09-.61-1.56-.27-.41-.34-.95-.34-1.56,0-.48.07-.88.2-1.22.14-.34.27-.75.41-1.22.47-.14,1.02-.34,1.56-.54.54-.2,1.08-.34,1.63-.41l2.92-6.72c-.75-.34-1.49-.68-2.31-1.02-.79-.32-1.54-.73-2.24-1.22-.68-.48-1.29-.95-1.69-1.5-.44-.48-.68-1.11-.68-1.77,0-.68.27-1.09.82-1.36.54-.27,1.36-.41,2.37-.47,1.29-.07,2.64-.27,4.07-.48,1.42-.27,2.98-.48,4.61-.81,1.7-.27,3.53-.54,5.56-.82,2.04-.27,4.34-.34,6.85-.34.54,0,1.22.07,1.97.14s1.76.34,3.05.75c.54.68,1.36,1.56,2.37,2.72,1.02,1.15,1.56,2.24,1.56,3.33,0,.34-.27.61-.75.95-.48.27-1.09.54-1.7.81-.68.27-1.36.48-2.17.68-.75.2-1.42.34-2.03.34-1.29.07-2.37.14-3.32.2-.88.07-1.7.07-2.31.07-.68,0-1.29,0-1.97.07-.68.07-1.36.07-2.17.07s-1.42.07-1.83.14c-.27.27-.54.75-.95,1.56-.34.82-.54,1.97-.54,3.53,0,.27.07.54.27.81.14.27.48.41.88.41h9.02l1.7.27c.34.41.54.95.61,1.63.07.68.14,1.36.14,1.9,0,.48-.07,1.09-.27,1.77-.14.68-.54,1.09-1.09,1.15-1.15.07-2.98.14-5.43.27-2.51.07-5.29.14-8.34.14-.34,0-.54.14-.75.48-.34,1.29-.75,2.65-1.22,4.01-.48,1.36-1.09,2.78-1.7,4.14.34,0,1.63-.2,3.87-.68,2.24-.47,5.29-.88,9.22-1.29l2.03-.2c.68-.07,1.36-.07,2.04-.07.75,0,1.42.41,2.1,1.22.68.82.95,1.63.95,2.45-.14.75-.41,1.36-.88,1.63ZM253.54,124.34c-2.44-.27-4.41-1.29-5.9-3.12-1.49-1.83-2.24-4.07-2.24-6.65,0-.54.14-1.77.41-3.67.27-1.9.75-4.21,1.42-7.06.68-2.79,1.56-6.05,2.71-9.64,1.26-3.91,2.69-7.76,4.27-11.54-.68-1.49-1.15-2.99-1.56-4.48-.4-1.46-.61-2.97-.61-4.48,0-3.19.68-6.38,1.97-9.64,1.29-3.26,2.78-6.25,4.48-8.9,1.7-2.65,3.32-4.82,4.88-6.52,1.56-1.7,2.71-2.58,3.39-2.72.88.14,1.42.48,1.63.95.2.47.34,1.29.34,2.44,0,1.22-.41,2.44-1.22,3.67-.81,1.22-2.17,3.26-4,6.11-1.14,1.87-2.19,3.79-3.12,5.77-1.09,2.31-1.63,4.55-1.63,6.72,0,.27,0,.54.07.81s.14.54.34.68h.27c.07,0,.27-.14.48-.48,1.49-1.97,3.26-4.21,5.36-6.79,2.09-2.54,4.28-4.98,6.58-7.33,2.31-2.31,4.48-4.28,6.65-5.91,2.17-1.63,4-2.45,5.56-2.45s2.85.54,3.93,1.7c1.09,1.15,1.9,2.51,2.44,4.07s.95,3.26,1.22,4.96c.27,1.7.34,3.19.34,4.41,0,3.6-.95,6.93-2.92,9.91-1.97,2.99-4.34,5.64-7.12,7.81-2.78,2.17-5.7,3.94-8.68,5.16-2.98,1.22-5.56,1.83-7.6,1.83-.41,0-.81,0-1.29.07l-1.42.2c-1.22,3.53-2.24,6.59-2.98,9.23-.75,2.65-1.49,5.23-2.1,7.67-.61,2.44-1.22,4.96-1.76,7.54-.54,2.58-1.29,5.5-2.1,8.76l-.48.88h0ZM280.88,73.81c3.53-2.99,5.22-6.99,5.22-12.02,0-.68-.07-1.36-.2-2.17-.14-.82-.61-1.22-1.42-1.22-.48,0-1.15.34-1.97.95-.81.61-1.63,1.36-2.44,2.17-.82.81-1.56,1.7-2.31,2.58-.75.88-1.36,1.63-1.83,2.17-.34.48-.81,1.36-1.56,2.58-.74,1.33-1.46,2.66-2.17,4.01-.75,1.43-1.49,2.78-2.1,4.01-.61,1.29-1.02,2.17-1.29,2.65,4.34-.61,8.34-2.44,12.07-5.7Z"/><path class="cls-1" d="M43.88,147.76c0,8.22,5.77,14.12,13.16,14.12,4.54,0,8.27-2.38,10.11-5.7l5.83,2.99c-2.99,4.69-7.8,8.83-16.01,8.83-11.26,0-20.21-8.22-20.21-20.24M36.83,147.76c0-12.02,8.95-20.24,20.21-20.24,8.21,0,13.09,4.07,16.01,8.83l-5.83,2.99c-2.14-3.54-5.97-5.7-10.11-5.7-7.46,0-13.16,5.91-13.16,14.12M104.32,159.78h-18.52l-2.85,7.54h-7.53l15.33-39.11h8.55l15.33,39.11h-7.46l-2.85-7.54h0ZM87.77,153.74h14.65l-7.33-19.76s-7.32,19.76-7.32,19.76ZM131.45,152.65h-6.78v14.6h-6.85v-39.12h17.16c7.73,0,12.75,5.03,12.75,12.29s-4.54,10.73-9.23,11.48l9.56,15.35h-7.94l-8.68-14.6h0ZM134.03,134.18h-9.36v12.5h9.36c3.87,0,6.65-2.45,6.65-6.25s-2.78-6.25-6.65-6.25h0ZM153.43,128.14h26.79v6.04h-19.94v10.12h19.53v6.04h-19.53v10.87h19.94v6.04h-26.79v-39.11h0ZM187.21,128.14h26.79v6.04h-19.94v10.12h19.53v6.04h-19.53v10.87h19.94v6.04h-26.79v-39.11ZM233.53,152.65h-6.78v14.6h-6.85v-39.12h17.16c7.73,0,12.75,5.03,12.75,12.29s-4.54,10.73-9.22,11.48l9.56,15.35h-7.94l-8.68-14.6h0ZM236.11,134.18h-9.36v12.5h9.36c3.87,0,6.65-2.45,6.65-6.25s-2.78-6.25-6.65-6.25ZM255.58,156.52c2.71,2.85,6.92,5.36,12.34,5.36s7.87-2.78,7.87-5.36c0-3.53-4.14-4.55-8.89-5.84-6.38-1.56-13.91-3.46-13.91-11.75,0-6.45,5.7-11.41,14.24-11.41,6.11,0,10.99,1.97,14.65,5.43l-3.93,5.09c-3.05-3.06-7.19-4.48-11.33-4.48s-6.65,1.97-6.65,4.89,4,4.08,8.61,5.23c6.44,1.63,14.11,3.67,14.11,12.15,0,6.52-4.54,12.09-15.13,12.09-7.19,0-12.41-2.51-15.87-6.25l3.87-5.16h0Z"/></svg>